<svg xmlns="http://www.w3.org/2000/svg" xmlns:xlink="http://www.w3.org/1999/xlink" width="500" zoomAndPan="magnify" viewBox="0 0 375 374.999991" height="500" preserveAspectRatio="xMidYMid meet" version="1.0"><defs><clipPath id="963a54bc34"><path d="M 42.789062 42.789062 L 332.289062 42.789062 L 332.289062 332.289062 L 42.789062 332.289062 Z M 42.789062 42.789062 " clip-rule="nonzero"/></clipPath></defs><rect x="-37.5" width="450" fill="#ffffff" y="-37.499999" height="449.999989" fill-opacity="1"/><rect x="-37.5" width="450" fill="#ffffff" y="-37.499999" height="449.999989" fill-opacity="1"/><path fill="#ed3947" d="M 329.105469 187.496094 C 329.105469 265.703125 265.707031 329.105469 187.496094 329.105469 C 109.285156 329.105469 45.886719 265.703125 45.886719 187.496094 C 45.886719 109.285156 109.285156 45.886719 187.496094 45.886719 C 265.707031 45.886719 329.105469 109.285156 329.105469 187.496094 " fill-opacity="1" fill-rule="nonzero"/><g clip-path="url(#963a54bc34)"><path fill="#0c1216" d="M 329.105469 187.496094 L 325.988281 187.496094 C 325.988281 225.746094 310.492188 260.351562 285.425781 285.425781 C 260.351562 310.492188 225.75 325.988281 187.496094 325.988281 C 149.242188 325.988281 114.640625 310.492188 89.566406 285.425781 C 64.496094 260.351562 49.003906 225.746094 49 187.496094 C 49.003906 149.242188 64.496094 114.636719 89.566406 89.566406 C 114.640625 64.496094 149.242188 49.003906 187.496094 49 C 225.75 49.003906 260.351562 64.496094 285.425781 89.566406 C 310.492188 114.636719 325.988281 149.238281 325.988281 187.496094 L 332.222656 187.496094 C 332.226562 147.539062 316.019531 111.335938 289.832031 85.15625 C 263.652344 58.972656 227.453125 42.765625 187.496094 42.765625 C 147.539062 42.765625 111.339844 58.972656 85.15625 85.15625 C 58.972656 111.335938 42.765625 147.539062 42.765625 187.496094 C 42.765625 227.449219 58.972656 263.652344 85.15625 289.832031 C 111.339844 316.019531 147.539062 332.222656 187.496094 332.222656 C 227.453125 332.222656 263.652344 316.019531 289.832031 289.832031 C 316.019531 263.652344 332.226562 227.449219 332.222656 187.496094 L 329.105469 187.496094 " fill-opacity="1" fill-rule="nonzero"/></g><path fill="#ffffff" d="M 306.804688 187.496094 C 306.804688 253.386719 253.386719 306.800781 187.496094 306.800781 C 121.605469 306.800781 68.1875 253.386719 68.1875 187.496094 C 68.1875 121.605469 121.605469 68.1875 187.496094 68.1875 C 253.386719 68.1875 306.804688 121.605469 306.804688 187.496094 " fill-opacity="1" fill-rule="nonzero"/><path fill="#0c1216" d="M 306.804688 187.496094 L 303.683594 187.496094 C 303.683594 219.589844 290.683594 248.617188 269.652344 269.652344 C 248.621094 290.683594 219.589844 303.679688 187.496094 303.679688 C 155.402344 303.679688 126.375 290.683594 105.339844 269.652344 C 84.304688 248.617188 71.308594 219.589844 71.308594 187.496094 C 71.308594 155.398438 84.304688 126.375 105.339844 105.335938 C 126.375 84.304688 155.402344 71.304688 187.496094 71.304688 C 219.589844 71.304688 248.621094 84.304688 269.652344 105.335938 C 290.683594 126.375 303.683594 155.398438 303.683594 187.496094 L 309.917969 187.496094 C 309.917969 153.695312 296.210938 123.074219 274.0625 100.925781 C 251.917969 78.777344 221.292969 65.066406 187.496094 65.070312 C 153.703125 65.066406 123.074219 78.777344 100.929688 100.925781 C 78.777344 123.074219 65.070312 153.695312 65.074219 187.496094 C 65.070312 221.289062 78.777344 251.914062 100.929688 274.058594 C 123.074219 296.210938 153.699219 309.917969 187.496094 309.914062 C 221.292969 309.917969 251.917969 296.210938 274.0625 274.058594 C 296.210938 251.914062 309.917969 221.289062 309.917969 187.496094 L 306.804688 187.496094 " fill-opacity="1" fill-rule="nonzero"/><path fill="#ffffff" d="M 289.625 125.816406 L 271.066406 137.019531 " fill-opacity="1" fill-rule="nonzero"/><path fill="#0c1216" d="M 288.011719 123.144531 L 269.453125 134.355469 C 267.980469 135.242188 267.507812 137.160156 268.394531 138.636719 C 269.289062 140.105469 271.203125 140.578125 272.675781 139.691406 L 291.234375 128.484375 C 292.710938 127.59375 293.183594 125.679688 292.289062 124.203125 C 291.402344 122.730469 289.484375 122.257812 288.011719 123.144531 " fill-opacity="1" fill-rule="nonzero"/><path fill="#ffffff" d="M 103.929688 237.960938 L 85.371094 249.171875 " fill-opacity="1" fill-rule="nonzero"/><path fill="#0c1216" d="M 102.320312 235.292969 L 83.757812 246.5 C 82.285156 247.394531 81.8125 249.308594 82.703125 250.78125 C 83.589844 252.257812 85.507812 252.730469 86.980469 251.839844 L 105.539062 240.628906 C 107.015625 239.742188 107.488281 237.824219 106.597656 236.351562 C 105.707031 234.875 103.789062 234.402344 102.320312 235.292969 " fill-opacity="1" fill-rule="nonzero"/><path fill="#ffffff" d="M 248.40625 84.90625 L 237.335938 103.546875 " fill-opacity="1" fill-rule="nonzero"/><path fill="#0c1216" d="M 245.722656 83.3125 L 234.65625 101.953125 C 233.777344 103.4375 234.261719 105.351562 235.746094 106.226562 C 237.226562 107.105469 239.140625 106.621094 240.019531 105.136719 L 251.085938 86.496094 C 251.964844 85.015625 251.476562 83.105469 249.996094 82.226562 C 248.511719 81.34375 246.601562 81.832031 245.722656 83.3125 " fill-opacity="1" fill-rule="nonzero"/><path fill="#ffffff" d="M 137.65625 271.4375 L 126.585938 290.078125 " fill-opacity="1" fill-rule="nonzero"/><path fill="#0c1216" d="M 134.976562 269.84375 L 123.90625 288.488281 C 123.03125 289.96875 123.515625 291.882812 124.996094 292.761719 C 126.480469 293.640625 128.390625 293.152344 129.269531 291.671875 L 140.339844 273.027344 C 141.214844 271.550781 140.730469 269.636719 139.25 268.757812 C 137.765625 267.878906 135.855469 268.367188 134.976562 269.84375 " fill-opacity="1" fill-rule="nonzero"/><path fill="#0c1216" d="M 306.804688 184.375 L 285.125 184.375 C 283.402344 184.375 282.007812 185.769531 282.007812 187.492188 C 282.007812 189.210938 283.402344 190.609375 285.125 190.609375 L 306.804688 190.609375 C 308.527344 190.609375 309.917969 189.210938 309.917969 187.492188 C 309.917969 185.769531 308.527344 184.375 306.804688 184.375 " fill-opacity="1" fill-rule="nonzero"/><path fill="#0c1216" d="M 89.875 184.375 L 68.1875 184.375 C 66.46875 184.375 65.074219 185.769531 65.074219 187.492188 C 65.074219 189.210938 66.46875 190.609375 68.1875 190.609375 L 89.875 190.609375 C 91.59375 190.609375 92.988281 189.210938 92.988281 187.492188 C 92.988281 185.769531 91.59375 184.375 89.875 184.375 " fill-opacity="1" fill-rule="nonzero"/><path fill="#ffffff" d="M 82.308594 131.203125 L 101.421875 141.429688 " fill-opacity="1" fill-rule="nonzero"/><path fill="#0c1216" d="M 80.835938 133.953125 L 99.949219 144.179688 C 101.46875 144.992188 103.359375 144.421875 104.167969 142.902344 C 104.980469 141.382812 104.410156 139.492188 102.890625 138.683594 L 83.777344 128.453125 C 82.257812 127.644531 80.371094 128.214844 79.558594 129.734375 C 78.746094 131.25 79.316406 133.140625 80.835938 133.953125 " fill-opacity="1" fill-rule="nonzero"/><path fill="#ffffff" d="M 273.574219 233.554688 L 292.6875 243.785156 " fill-opacity="1" fill-rule="nonzero"/><path fill="#0c1216" d="M 272.101562 236.300781 L 291.21875 246.53125 C 292.734375 247.34375 294.625 246.773438 295.4375 245.253906 C 296.246094 243.734375 295.675781 241.847656 294.160156 241.035156 L 275.042969 230.808594 C 273.523438 229.996094 271.636719 230.566406 270.824219 232.082031 C 270.015625 233.601562 270.585938 235.492188 272.101562 236.300781 " fill-opacity="1" fill-rule="nonzero"/><path fill="#ffffff" d="M 122.828125 87.234375 L 134.578125 105.453125 " fill-opacity="1" fill-rule="nonzero"/><path fill="#0c1216" d="M 120.207031 88.921875 L 131.960938 107.144531 C 132.894531 108.589844 134.824219 109.007812 136.269531 108.070312 C 137.714844 107.136719 138.136719 105.210938 137.199219 103.761719 L 125.445312 85.546875 C 124.515625 84.097656 122.585938 83.683594 121.140625 84.613281 C 119.691406 85.546875 119.277344 87.476562 120.207031 88.921875 " fill-opacity="1" fill-rule="nonzero"/><path fill="#ffffff" d="M 240.414062 269.535156 L 252.164062 287.75 " fill-opacity="1" fill-rule="nonzero"/><path fill="#0c1216" d="M 237.792969 271.222656 L 249.546875 289.441406 C 250.476562 290.886719 252.410156 291.304688 253.855469 290.371094 C 255.304688 289.4375 255.71875 287.507812 254.785156 286.0625 L 243.035156 267.84375 C 242.097656 266.398438 240.171875 265.980469 238.722656 266.914062 C 237.277344 267.847656 236.859375 269.777344 237.792969 271.222656 " fill-opacity="1" fill-rule="nonzero"/><path fill="#0c1216" d="M 184.378906 68.1875 L 184.378906 89.867188 C 184.378906 91.589844 185.773438 92.984375 187.496094 92.984375 C 189.214844 92.984375 190.613281 91.589844 190.613281 89.867188 L 190.613281 68.1875 C 190.613281 66.464844 189.214844 65.070312 187.496094 65.070312 C 185.773438 65.070312 184.378906 66.464844 184.378906 68.1875 " fill-opacity="1" fill-rule="nonzero"/><path fill="#0c1216" d="M 184.378906 285.121094 L 184.378906 306.800781 C 184.378906 308.519531 185.773438 309.914062 187.496094 309.914062 C 189.214844 309.914062 190.613281 308.519531 190.613281 306.800781 L 190.613281 285.121094 C 190.613281 283.394531 189.214844 282.003906 187.496094 282.003906 C 185.773438 282.003906 184.378906 283.394531 184.378906 285.121094 " fill-opacity="1" fill-rule="nonzero"/><path fill="#0c1216" d="M 189.316406 182.035156 C 189.316406 183.039062 188.5 183.851562 187.496094 183.851562 C 186.492188 183.851562 185.675781 183.039062 185.675781 182.035156 L 185.675781 127.636719 C 185.675781 126.628906 186.492188 125.816406 187.496094 125.816406 C 188.5 125.816406 189.316406 126.628906 189.316406 127.636719 L 189.316406 182.035156 " fill-opacity="1" fill-rule="nonzero"/><path fill="#0c1216" d="M 228.273438 229.191406 C 227.195312 230.246094 225.46875 230.222656 224.410156 229.144531 L 188.273438 192.128906 C 187.21875 191.050781 187.242188 189.320312 188.316406 188.269531 C 189.394531 187.214844 191.125 187.238281 192.179688 188.316406 L 228.316406 225.332031 C 229.375 226.410156 229.351562 228.140625 228.273438 229.191406 " fill-opacity="1" fill-rule="nonzero"/><path fill="#ed3947" d="M 189.316406 186.128906 C 189.316406 187.164062 188.703125 188.007812 187.949219 188.007812 L 112.554688 188.007812 C 111.800781 188.007812 111.1875 187.164062 111.1875 186.128906 C 111.1875 185.09375 111.800781 184.25 112.554688 184.25 L 187.949219 184.25 C 188.703125 184.25 189.316406 185.09375 189.316406 186.128906 " fill-opacity="1" fill-rule="nonzero"/><path fill="#0c1216" d="M 198.363281 187.492188 C 198.363281 193.492188 193.496094 198.359375 187.496094 198.359375 C 181.492188 198.359375 176.628906 193.492188 176.628906 187.492188 C 176.628906 181.492188 181.492188 176.625 187.496094 176.625 C 193.496094 176.625 198.363281 181.492188 198.363281 187.492188 " fill-opacity="1" fill-rule="nonzero"/></svg>