<svg xmlns="http://www.w3.org/2000/svg" xmlns:xlink="http://www.w3.org/1999/xlink" width="500" zoomAndPan="magnify" viewBox="0 0 375 374.999991" height="500" preserveAspectRatio="xMidYMid meet" version="1.0"><rect x="-37.5" width="450" fill="#ffffff" y="-37.499999" height="449.999989" fill-opacity="1"/><rect x="-37.5" width="450" fill="#ffffff" y="-37.499999" height="449.999989" fill-opacity="1"/><path fill="#d76b73" d="M 306.265625 105.855469 C 287.273438 75.878906 247.667969 73.46875 222.921875 81.960938 C 203.71875 88.5625 189.90625 106.90625 187.5 110.050781 C 185.09375 106.90625 171.804688 88.929688 152.601562 82.378906 C 127.855469 73.890625 87.726562 75.878906 68.734375 105.855469 C 61.199219 117.753906 37.5 156.21875 88.878906 215.644531 C 88.878906 215.644531 137.484375 271.875 182.371094 299.074219 C 184.414062 300.28125 187.027344 301.90625 187.238281 301.800781 C 187.449219 301.90625 190.324219 300.332031 192.367188 299.074219 C 237.253906 271.875 286.121094 215.644531 286.121094 215.644531 C 337.5 156.21875 313.800781 117.753906 306.265625 105.855469 Z M 306.265625 105.855469 " fill-opacity="1" fill-rule="nonzero"/><path fill="#ffffff" d="M 179.285156 245.832031 C 177.507812 245.832031 175.886719 244.730469 175.257812 243 L 144.546875 160.882812 L 132.929688 198.246094 C 132.355469 200.027344 130.679688 201.390625 128.796875 201.390625 L 95.835938 201.390625 C 93.429688 201.390625 91.492188 199.347656 91.492188 196.9375 C 91.492188 194.527344 93.429688 192.484375 95.835938 192.484375 L 125.605469 192.484375 L 140.046875 146.207031 C 140.621094 144.425781 142.191406 143.222656 144.074219 143.167969 C 145.957031 143.117188 147.582031 144.269531 148.261719 146 L 178.605469 227.121094 L 194.5625 165.808594 C 195.035156 164.027344 196.550781 162.769531 198.332031 162.613281 C 200.109375 162.453125 201.835938 163.398438 202.621094 165.074219 L 215.332031 191.855469 L 229.304688 135.726562 C 229.773438 133.894531 231.394531 132.53125 233.28125 132.476562 C 235.164062 132.375 236.941406 133.578125 237.570312 135.359375 L 247.824219 164.550781 L 287.535156 164.65625 C 289.941406 164.65625 291.824219 166.28125 291.824219 168.636719 C 291.824219 171.046875 289.890625 172.621094 287.484375 172.621094 L 244.683594 172.832031 C 242.855469 172.832031 241.230469 171.835938 240.605469 170.105469 L 234.117188 151.710938 L 220.671875 205.582031 C 220.253906 207.367188 218.734375 208.675781 216.902344 208.886719 C 215.074219 209.042969 213.347656 208.097656 212.5625 206.421875 L 199.742188 179.484375 L 183.316406 242.582031 C 182.84375 244.417969 181.222656 245.726562 179.339844 245.832031 C 179.441406 245.832031 179.390625 245.832031 179.285156 245.832031 Z M 179.285156 245.832031 " fill-opacity="1" fill-rule="nonzero"/><path fill="#ffffff" d="M 104.730469 195.992188 C 104.730469 196.609375 104.671875 197.21875 104.550781 197.824219 C 104.429688 198.429688 104.253906 199.015625 104.019531 199.582031 C 103.78125 200.152344 103.492188 200.691406 103.152344 201.207031 C 102.8125 201.71875 102.421875 202.191406 101.988281 202.625 C 101.550781 203.0625 101.078125 203.453125 100.570312 203.792969 C 100.058594 204.136719 99.515625 204.425781 98.949219 204.660156 C 98.382812 204.894531 97.796875 205.074219 97.191406 205.195312 C 96.589844 205.3125 95.980469 205.375 95.367188 205.375 C 94.75 205.375 94.140625 205.3125 93.539062 205.195312 C 92.933594 205.074219 92.347656 204.894531 91.78125 204.660156 C 91.214844 204.425781 90.671875 204.136719 90.164062 203.792969 C 89.652344 203.453125 89.179688 203.0625 88.742188 202.625 C 88.308594 202.191406 87.921875 201.71875 87.578125 201.207031 C 87.238281 200.691406 86.949219 200.152344 86.714844 199.582031 C 86.476562 199.015625 86.300781 198.429688 86.179688 197.824219 C 86.058594 197.21875 86 196.609375 86 195.992188 C 86 195.378906 86.058594 194.769531 86.179688 194.164062 C 86.300781 193.558594 86.476562 192.972656 86.714844 192.402344 C 86.949219 191.835938 87.238281 191.292969 87.578125 190.78125 C 87.921875 190.269531 88.308594 189.796875 88.742188 189.359375 C 89.179688 188.925781 89.652344 188.535156 90.164062 188.195312 C 90.671875 187.851562 91.214844 187.5625 91.78125 187.328125 C 92.347656 187.089844 92.933594 186.914062 93.539062 186.792969 C 94.140625 186.671875 94.75 186.613281 95.367188 186.613281 C 95.980469 186.613281 96.589844 186.671875 97.191406 186.792969 C 97.796875 186.914062 98.382812 187.089844 98.949219 187.328125 C 99.515625 187.5625 100.058594 187.851562 100.570312 188.195312 C 101.078125 188.535156 101.554688 188.925781 101.988281 189.359375 C 102.421875 189.796875 102.8125 190.269531 103.152344 190.78125 C 103.492188 191.292969 103.78125 191.835938 104.019531 192.402344 C 104.253906 192.972656 104.429688 193.558594 104.550781 194.164062 C 104.671875 194.769531 104.730469 195.378906 104.730469 195.992188 Z M 104.730469 195.992188 " fill-opacity="1" fill-rule="nonzero"/><path fill="#ffffff" d="M 300.980469 168.796875 C 300.980469 169.410156 300.921875 170.019531 300.800781 170.625 C 300.679688 171.230469 300.503906 171.816406 300.269531 172.386719 C 300.03125 172.953125 299.746094 173.496094 299.402344 174.007812 C 299.0625 174.519531 298.671875 174.992188 298.238281 175.429688 C 297.804688 175.863281 297.328125 176.253906 296.820312 176.59375 C 296.308594 176.9375 295.769531 177.226562 295.199219 177.460938 C 294.632812 177.699219 294.046875 177.875 293.441406 177.996094 C 292.839844 178.117188 292.230469 178.175781 291.617188 178.175781 C 291 178.175781 290.390625 178.117188 289.789062 177.996094 C 289.1875 177.875 288.601562 177.699219 288.03125 177.460938 C 287.464844 177.226562 286.925781 176.9375 286.414062 176.59375 C 285.902344 176.253906 285.429688 175.863281 284.992188 175.429688 C 284.558594 174.992188 284.171875 174.519531 283.828125 174.007812 C 283.488281 173.496094 283.199219 172.953125 282.964844 172.386719 C 282.726562 171.816406 282.550781 171.230469 282.429688 170.625 C 282.3125 170.019531 282.25 169.410156 282.25 168.796875 C 282.25 168.179688 282.3125 167.570312 282.429688 166.964844 C 282.550781 166.359375 282.726562 165.773438 282.964844 165.207031 C 283.199219 164.636719 283.488281 164.097656 283.828125 163.582031 C 284.171875 163.070312 284.558594 162.597656 284.992188 162.164062 C 285.429688 161.726562 285.902344 161.335938 286.414062 160.996094 C 286.925781 160.652344 287.464844 160.363281 288.03125 160.128906 C 288.601562 159.894531 289.1875 159.714844 289.789062 159.59375 C 290.390625 159.476562 291 159.414062 291.617188 159.414062 C 292.230469 159.414062 292.839844 159.476562 293.441406 159.59375 C 294.046875 159.714844 294.632812 159.894531 295.199219 160.128906 C 295.769531 160.363281 296.308594 160.652344 296.820312 160.996094 C 297.328125 161.335938 297.804688 161.726562 298.238281 162.164062 C 298.671875 162.597656 299.0625 163.070312 299.402344 163.582031 C 299.746094 164.097656 300.03125 164.636719 300.269531 165.207031 C 300.503906 165.773438 300.679688 166.359375 300.800781 166.964844 C 300.921875 167.570312 300.980469 168.179688 300.980469 168.796875 Z M 300.980469 168.796875 " fill-opacity="1" fill-rule="nonzero"/></svg>