<svg xmlns="http://www.w3.org/2000/svg" xmlns:xlink="http://www.w3.org/1999/xlink" width="500" zoomAndPan="magnify" viewBox="0 0 375 374.999991" height="500" preserveAspectRatio="xMidYMid meet" version="1.0"><defs><clipPath id="3826cda2f5"><path d="M 97.15625 76 L 277.90625 76 L 277.90625 316.726562 L 97.15625 316.726562 Z M 97.15625 76 " clip-rule="nonzero"/></clipPath><clipPath id="c9eccde278"><path d="M 141 57.976562 L 234 57.976562 L 234 106 L 141 106 Z M 141 57.976562 " clip-rule="nonzero"/></clipPath></defs><rect x="-37.5" width="450" fill="#ffffff" y="-37.499999" height="449.999989" fill-opacity="1"/><rect x="-37.5" width="450" fill="#ffffff" y="-37.499999" height="449.999989" fill-opacity="1"/><g clip-path="url(#3826cda2f5)"><path fill="#5271ff" d="M 261.070312 316.742188 L 114.019531 316.742188 C 104.753906 316.742188 97.25 309.242188 97.25 299.996094 L 97.25 92.808594 C 97.25 83.558594 104.753906 76.058594 114.019531 76.058594 L 261.070312 76.058594 C 270.335938 76.058594 277.84375 83.558594 277.84375 92.808594 L 277.84375 299.996094 C 277.84375 309.242188 270.335938 316.742188 261.070312 316.742188 " fill-opacity="1" fill-rule="nonzero"/></g><path fill="#e7e8e6" d="M 261.097656 294.152344 L 113.988281 294.152344 L 113.988281 98.652344 L 261.097656 98.652344 L 261.097656 294.152344 " fill-opacity="1" fill-rule="nonzero"/><g clip-path="url(#c9eccde278)"><path fill="#192746" d="M 233.644531 105.371094 L 141.445312 105.371094 L 141.445312 70.980469 C 141.445312 63.792969 147.28125 57.957031 154.484375 57.957031 L 220.605469 57.957031 C 227.808594 57.957031 233.644531 63.792969 233.644531 70.980469 L 233.644531 105.371094 " fill-opacity="1" fill-rule="nonzero"/></g><path fill="#ffffff" d="M 176.691406 65.898438 L 162.597656 65.898438 C 158.359375 65.898438 154.917969 69.335938 154.917969 73.566406 C 154.917969 77.800781 158.359375 81.230469 162.597656 81.230469 L 176.691406 81.230469 L 176.691406 65.898438 " fill-opacity="1" fill-rule="nonzero"/><path fill="#ffffff" d="M 212.492188 65.898438 L 198.398438 65.898438 L 198.398438 81.230469 L 212.492188 81.230469 C 216.734375 81.230469 220.171875 77.800781 220.171875 73.566406 C 220.171875 69.335938 216.734375 65.898438 212.492188 65.898438 " fill-opacity="1" fill-rule="nonzero"/><path stroke-linecap="round" transform="matrix(0.130617, 0, 0, -0.130418, -54.827958, 464.619809)" fill="none" stroke-linejoin="miter" d="M 1798.586453 2494.157275 L 2248.046471 2494.157275 " stroke="#192746" stroke-width="30" stroke-opacity="1" stroke-miterlimit="10"/><path stroke-linecap="round" transform="matrix(0.130617, 0, 0, -0.130418, -54.827958, 464.619809)" fill="none" stroke-linejoin="miter" d="M 1798.586453 2306.45003 L 2248.046471 2306.45003 " stroke="#192746" stroke-width="30" stroke-opacity="1" stroke-miterlimit="10"/><path stroke-linecap="round" transform="matrix(0.130617, 0, 0, -0.130418, -54.827958, 464.619809)" fill="none" stroke-linejoin="miter" d="M 1798.586453 2118.712834 L 2248.046471 2118.712834 " stroke="#192746" stroke-width="30" stroke-opacity="1" stroke-miterlimit="10"/><path stroke-linecap="round" transform="matrix(0.130617, 0, 0, -0.130418, -54.827958, 464.619809)" fill="none" stroke-linejoin="miter" d="M 1798.586453 1931.035542 L 2248.046471 1931.035542 " stroke="#192746" stroke-width="30" stroke-opacity="1" stroke-miterlimit="10"/><path stroke-linecap="round" transform="matrix(0.130617, 0, 0, -0.130418, -54.827958, 464.619809)" fill="none" stroke-linejoin="miter" d="M 1798.586453 1743.328297 L 2248.046471 1743.328297 " stroke="#192746" stroke-width="30" stroke-opacity="1" stroke-miterlimit="10"/><path stroke-linecap="round" transform="matrix(0.130617, 0, 0, -0.130418, -54.827958, 464.619809)" fill="none" stroke-linejoin="miter" d="M 1798.586453 1555.591102 L 2248.046471 1555.591102 " stroke="#192746" stroke-width="30" stroke-opacity="1" stroke-miterlimit="10"/><path stroke-linecap="round" transform="matrix(0.130617, 0, 0, -0.130418, -54.827958, 464.619809)" fill="none" stroke-linejoin="round" d="M 1584.727341 2330.022011 L 1420.572304 2330.022011 L 1420.572304 2494.157275 L 1584.727341 2494.157275 Z M 1584.727341 2330.022011 " stroke="#192746" stroke-width="30" stroke-opacity="1" stroke-miterlimit="10"/><path stroke-linecap="round" transform="matrix(0.130617, 0, 0, -0.130418, -54.827958, 464.619809)" fill="none" stroke-linejoin="round" d="M 1584.727341 1954.607522 L 1420.572304 1954.607522 L 1420.572304 2118.712834 L 1584.727341 2118.712834 Z M 1584.727341 1954.607522 " stroke="#192746" stroke-width="30" stroke-opacity="1" stroke-miterlimit="10"/><path stroke-linecap="round" transform="matrix(0.130617, 0, 0, -0.130418, -54.827958, 464.619809)" fill="none" stroke-linejoin="round" d="M 1584.727341 1579.193034 L 1420.572304 1579.193034 L 1420.572304 1743.328297 L 1584.727341 1743.328297 Z M 1584.727341 1579.193034 " stroke="#192746" stroke-width="30" stroke-opacity="1" stroke-miterlimit="10"/><path stroke-linecap="round" transform="matrix(0.130617, 0, 0, -0.130418, -54.827958, 464.619809)" fill="none" stroke-linejoin="round" d="M 1461.334431 2441.442299 L 1524.765444 2380.640368 L 1667.53756 2623.878046 " stroke="#d64151" stroke-width="30" stroke-opacity="1" stroke-miterlimit="10"/><path stroke-linecap="round" transform="matrix(0.130617, 0, 0, -0.130418, -54.827958, 464.619809)" fill="none" stroke-linejoin="round" d="M 1461.334431 2065.518632 L 1524.765444 2004.686749 L 1667.53756 2247.924427 " stroke="#d64151" stroke-width="30" stroke-opacity="1" stroke-miterlimit="10"/><path stroke-linecap="round" transform="matrix(0.130617, 0, 0, -0.130418, -54.827958, 464.619809)" fill="none" stroke-linejoin="round" d="M 1461.334431 1689.565013 L 1524.765444 1628.763081 L 1667.53756 1872.00076 " stroke="#d64151" stroke-width="30" stroke-opacity="1" stroke-miterlimit="10"/></svg>