<svg xmlns="http://www.w3.org/2000/svg" xmlns:xlink="http://www.w3.org/1999/xlink" width="500" zoomAndPan="magnify" viewBox="0 0 375 374.999991" height="500" preserveAspectRatio="xMidYMid meet" version="1.0"><defs><clipPath id="36c7246b84"><path d="M 39.273438 187 L 188 187 L 188 335.523438 L 39.273438 335.523438 Z M 39.273438 187 " clip-rule="nonzero"/></clipPath><clipPath id="6d8de40268"><path d="M 49 39.273438 L 60 39.273438 L 60 50 L 49 50 Z M 49 39.273438 " clip-rule="nonzero"/></clipPath><clipPath id="7e1298f490"><path d="M 39.273438 49 L 50 49 L 50 60 L 39.273438 60 Z M 39.273438 49 " clip-rule="nonzero"/></clipPath><clipPath id="13024e320a"><path d="M 315 325 L 326 325 L 326 335.523438 L 315 335.523438 Z M 315 325 " clip-rule="nonzero"/></clipPath><clipPath id="57782dda21"><path d="M 325 315 L 335.523438 315 L 335.523438 326 L 325 326 Z M 325 315 " clip-rule="nonzero"/></clipPath><clipPath id="caafd9b6d8"><path d="M 96 260 L 188 260 L 188 335.523438 L 96 335.523438 Z M 96 260 " clip-rule="nonzero"/></clipPath><clipPath id="cd9e8538ef"><path d="M 187 39.273438 L 335.523438 39.273438 L 335.523438 188 L 187 188 Z M 187 39.273438 " clip-rule="nonzero"/></clipPath><clipPath id="9f60389db0"><path d="M 244 112 L 335.523438 112 L 335.523438 188 L 244 188 Z M 244 112 " clip-rule="nonzero"/></clipPath></defs><rect x="-37.5" width="450" fill="#ffffff" y="-37.499999" height="449.999989" fill-opacity="1"/><rect x="-37.5" width="450" fill="#ffffff" y="-37.499999" height="449.999989" fill-opacity="1"/><g clip-path="url(#36c7246b84)"><path fill="#99e1ff" d="M 187.398438 261.460938 C 187.398438 262.675781 187.371094 263.886719 187.3125 265.097656 C 187.25 266.308594 187.164062 267.515625 187.042969 268.722656 C 186.925781 269.929688 186.777344 271.128906 186.597656 272.328125 C 186.421875 273.527344 186.214844 274.722656 185.976562 275.910156 C 185.742188 277.101562 185.476562 278.28125 185.179688 279.457031 C 184.886719 280.632812 184.5625 281.800781 184.210938 282.960938 C 183.859375 284.121094 183.480469 285.273438 183.070312 286.414062 C 182.664062 287.554688 182.226562 288.683594 181.761719 289.804688 C 181.296875 290.925781 180.808594 292.03125 180.289062 293.128906 C 179.769531 294.222656 179.226562 295.304688 178.65625 296.375 C 178.082031 297.445312 177.484375 298.5 176.863281 299.539062 C 176.238281 300.578125 175.589844 301.601562 174.917969 302.609375 C 174.246094 303.617188 173.546875 304.609375 172.824219 305.582031 C 172.101562 306.554688 171.359375 307.511719 170.589844 308.449219 C 169.820312 309.382812 169.027344 310.300781 168.214844 311.199219 C 167.398438 312.097656 166.566406 312.976562 165.707031 313.832031 C 164.851562 314.691406 163.972656 315.523438 163.074219 316.339844 C 162.175781 317.152344 161.257812 317.945312 160.324219 318.714844 C 159.386719 319.484375 158.429688 320.226562 157.457031 320.949219 C 156.484375 321.671875 155.492188 322.371094 154.484375 323.042969 C 153.476562 323.714844 152.453125 324.363281 151.414062 324.988281 C 150.375 325.609375 149.320312 326.207031 148.25 326.78125 C 147.179688 327.351562 146.097656 327.894531 145.003906 328.414062 C 143.90625 328.933594 142.800781 329.421875 141.679688 329.886719 C 140.558594 330.351562 139.429688 330.789062 138.289062 331.195312 C 137.148438 331.605469 135.996094 331.984375 134.835938 332.335938 C 133.675781 332.6875 132.507812 333.011719 131.332031 333.304688 C 130.15625 333.601562 128.976562 333.867188 127.785156 334.101562 C 126.597656 334.339844 125.402344 334.546875 124.203125 334.722656 C 123.007812 334.902344 121.804688 335.050781 120.597656 335.167969 C 119.390625 335.289062 118.183594 335.375 116.972656 335.4375 C 115.761719 335.496094 114.550781 335.523438 113.335938 335.523438 C 112.125 335.523438 110.914062 335.496094 109.703125 335.4375 C 108.492188 335.375 107.285156 335.289062 106.078125 335.167969 C 104.871094 335.050781 103.667969 334.902344 102.46875 334.722656 C 101.269531 334.546875 100.078125 334.339844 98.890625 334.101562 C 97.699219 333.867188 96.519531 333.601562 95.34375 333.304688 C 94.167969 333.011719 93 332.6875 91.839844 332.335938 C 90.679688 331.984375 89.527344 331.605469 88.386719 331.195312 C 87.246094 330.789062 86.113281 330.351562 84.996094 329.886719 C 83.875 329.421875 82.765625 328.933594 81.671875 328.414062 C 80.574219 327.894531 79.492188 327.351562 78.425781 326.78125 C 77.355469 326.207031 76.300781 325.609375 75.261719 324.988281 C 74.222656 324.363281 73.199219 323.714844 72.191406 323.042969 C 71.183594 322.371094 70.191406 321.671875 69.21875 320.949219 C 68.246094 320.226562 67.289062 319.484375 66.351562 318.714844 C 65.414062 317.945312 64.5 317.152344 63.601562 316.339844 C 62.703125 315.523438 61.824219 314.691406 60.96875 313.832031 C 60.109375 312.976562 59.273438 312.097656 58.460938 311.199219 C 57.648438 310.300781 56.855469 309.382812 56.085938 308.449219 C 55.316406 307.511719 54.570312 306.554688 53.851562 305.582031 C 53.128906 304.609375 52.429688 303.617188 51.757812 302.609375 C 51.082031 301.601562 50.433594 300.578125 49.8125 299.539062 C 49.1875 298.5 48.589844 297.445312 48.019531 296.375 C 47.449219 295.304688 46.902344 294.222656 46.386719 293.128906 C 45.867188 292.03125 45.375 290.925781 44.914062 289.804688 C 44.449219 288.683594 44.011719 287.554688 43.605469 286.414062 C 43.195312 285.273438 42.816406 284.121094 42.464844 282.960938 C 42.113281 281.800781 41.789062 280.632812 41.496094 279.457031 C 41.199219 278.28125 40.933594 277.101562 40.699219 275.910156 C 40.460938 274.722656 40.253906 273.527344 40.078125 272.328125 C 39.898438 271.128906 39.75 269.929688 39.632812 268.722656 C 39.511719 267.515625 39.425781 266.308594 39.363281 265.097656 C 39.304688 263.886719 39.273438 262.675781 39.273438 261.460938 C 39.273438 260.25 39.304688 259.039062 39.363281 257.828125 C 39.425781 256.617188 39.511719 255.410156 39.632812 254.203125 C 39.75 252.996094 39.898438 251.792969 40.078125 250.59375 C 40.253906 249.394531 40.460938 248.203125 40.699219 247.015625 C 40.933594 245.824219 41.199219 244.644531 41.496094 243.46875 C 41.789062 242.292969 42.113281 241.125 42.464844 239.964844 C 42.816406 238.804688 43.195312 237.652344 43.605469 236.511719 C 44.011719 235.371094 44.449219 234.238281 44.914062 233.121094 C 45.375 232 45.867188 230.890625 46.386719 229.796875 C 46.902344 228.699219 47.449219 227.617188 48.019531 226.550781 C 48.589844 225.480469 49.1875 224.425781 49.8125 223.386719 C 50.433594 222.347656 51.082031 221.324219 51.757812 220.316406 C 52.429688 219.308594 53.128906 218.316406 53.851562 217.34375 C 54.570312 216.371094 55.316406 215.414062 56.085938 214.476562 C 56.855469 213.539062 57.648438 212.625 58.460938 211.726562 C 59.273438 210.828125 60.109375 209.949219 60.96875 209.09375 C 61.824219 208.234375 62.703125 207.398438 63.601562 206.585938 C 64.5 205.773438 65.414062 204.980469 66.351562 204.210938 C 67.289062 203.441406 68.246094 202.695312 69.21875 201.976562 C 70.191406 201.253906 71.183594 200.554688 72.191406 199.882812 C 73.199219 199.207031 74.222656 198.558594 75.261719 197.9375 C 76.300781 197.3125 77.355469 196.714844 78.425781 196.144531 C 79.492188 195.574219 80.574219 195.027344 81.671875 194.511719 C 82.765625 193.992188 83.875 193.5 84.996094 193.039062 C 86.113281 192.574219 87.246094 192.136719 88.386719 191.730469 C 89.527344 191.320312 90.679688 190.941406 91.839844 190.589844 C 93 190.238281 94.167969 189.914062 95.34375 189.621094 C 96.519531 189.324219 97.699219 189.058594 98.890625 188.824219 C 100.078125 188.585938 101.269531 188.378906 102.46875 188.203125 C 103.667969 188.023438 104.871094 187.875 106.078125 187.757812 C 107.285156 187.636719 108.492188 187.546875 109.703125 187.488281 C 110.914062 187.429688 112.125 187.398438 113.335938 187.398438 C 114.550781 187.398438 115.761719 187.429688 116.972656 187.488281 C 118.183594 187.546875 119.390625 187.636719 120.597656 187.757812 C 121.804688 187.875 123.007812 188.023438 124.203125 188.203125 C 125.402344 188.378906 126.597656 188.585938 127.785156 188.824219 C 128.976562 189.058594 130.15625 189.324219 131.332031 189.621094 C 132.507812 189.914062 133.675781 190.238281 134.835938 190.589844 C 135.996094 190.941406 137.148438 191.320312 138.289062 191.730469 C 139.429688 192.136719 140.558594 192.574219 141.679688 193.039062 C 142.800781 193.5 143.90625 193.992188 145.003906 194.511719 C 146.097656 195.027344 147.179688 195.574219 148.25 196.144531 C 149.320312 196.714844 150.375 197.3125 151.414062 197.9375 C 152.453125 198.558594 153.476562 199.207031 154.484375 199.882812 C 155.492188 200.554688 156.484375 201.253906 157.457031 201.976562 C 158.429688 202.695312 159.386719 203.441406 160.324219 204.210938 C 161.257812 204.980469 162.175781 205.773438 163.074219 206.585938 C 163.972656 207.398438 164.851562 208.234375 165.707031 209.09375 C 166.566406 209.949219 167.398438 210.828125 168.214844 211.726562 C 169.027344 212.625 169.820312 213.539062 170.589844 214.476562 C 171.359375 215.414062 172.101562 216.371094 172.824219 217.34375 C 173.546875 218.316406 174.246094 219.308594 174.917969 220.316406 C 175.589844 221.324219 176.238281 222.347656 176.863281 223.386719 C 177.484375 224.425781 178.082031 225.480469 178.65625 226.550781 C 179.226562 227.617188 179.769531 228.699219 180.289062 229.796875 C 180.808594 230.890625 181.296875 232 181.761719 233.121094 C 182.226562 234.238281 182.664062 235.371094 183.070312 236.511719 C 183.480469 237.652344 183.859375 238.804688 184.210938 239.964844 C 184.5625 241.125 184.886719 242.292969 185.179688 243.46875 C 185.476562 244.644531 185.742188 245.824219 185.976562 247.015625 C 186.214844 248.203125 186.421875 249.394531 186.597656 250.59375 C 186.777344 251.792969 186.925781 252.996094 187.042969 254.203125 C 187.164062 255.410156 187.25 256.617188 187.3125 257.828125 C 187.371094 259.039062 187.398438 260.25 187.398438 261.460938 Z M 187.398438 261.460938 " fill-opacity="1" fill-rule="nonzero"/></g><path fill="#26547c" d="M 188.84375 213.535156 L 213.53125 188.847656 L 220.515625 195.832031 L 195.828125 220.519531 Z M 188.84375 213.535156 " fill-opacity="1" fill-rule="nonzero"/><path fill="#26547c" d="M 154.28125 178.972656 L 178.96875 154.285156 L 185.953125 161.269531 L 161.265625 185.957031 Z M 154.28125 178.972656 " fill-opacity="1" fill-rule="nonzero"/><g clip-path="url(#6d8de40268)"><path fill="#ffd166" d="M 49.148438 39.273438 L 59.023438 39.273438 L 59.023438 49.148438 L 49.148438 49.148438 Z M 49.148438 39.273438 " fill-opacity="1" fill-rule="nonzero"/></g><path fill="#ffd166" d="M 49.148438 59.023438 L 59.023438 59.023438 L 59.023438 68.898438 L 49.148438 68.898438 Z M 49.148438 59.023438 " fill-opacity="1" fill-rule="nonzero"/><path fill="#ffd166" d="M 59.023438 49.148438 L 68.898438 49.148438 L 68.898438 59.023438 L 59.023438 59.023438 Z M 59.023438 49.148438 " fill-opacity="1" fill-rule="nonzero"/><g clip-path="url(#7e1298f490)"><path fill="#ffd166" d="M 39.273438 49.148438 L 49.148438 49.148438 L 49.148438 59.023438 L 39.273438 59.023438 Z M 39.273438 49.148438 " fill-opacity="1" fill-rule="nonzero"/></g><path fill="#ffd166" d="M 315.773438 305.898438 L 325.648438 305.898438 L 325.648438 315.773438 L 315.773438 315.773438 Z M 315.773438 305.898438 " fill-opacity="1" fill-rule="nonzero"/><g clip-path="url(#13024e320a)"><path fill="#ffd166" d="M 315.773438 325.648438 L 325.648438 325.648438 L 325.648438 335.523438 L 315.773438 335.523438 Z M 315.773438 325.648438 " fill-opacity="1" fill-rule="nonzero"/></g><g clip-path="url(#57782dda21)"><path fill="#ffd166" d="M 325.648438 315.773438 L 335.523438 315.773438 L 335.523438 325.648438 L 325.648438 325.648438 Z M 325.648438 315.773438 " fill-opacity="1" fill-rule="nonzero"/></g><path fill="#ffd166" d="M 305.898438 315.773438 L 315.773438 315.773438 L 315.773438 325.648438 L 305.898438 325.648438 Z M 305.898438 315.773438 " fill-opacity="1" fill-rule="nonzero"/><path fill="#cccccc" d="M 133.085938 261.460938 L 123.210938 261.460938 L 113.335938 276.273438 L 103.460938 261.460938 L 93.585938 261.460938 C 82.679688 261.460938 73.835938 270.304688 73.835938 281.210938 L 73.835938 300.960938 L 152.835938 300.960938 L 152.835938 281.210938 C 152.835938 270.304688 143.996094 261.460938 133.085938 261.460938 Z M 133.085938 261.460938 " fill-opacity="1" fill-rule="nonzero"/><path fill="#f2c38d" d="M 138.023438 231.835938 C 138.023438 218.207031 126.96875 207.148438 113.335938 207.148438 C 99.707031 207.148438 88.648438 218.207031 88.648438 231.835938 C 88.648438 241.953125 94.753906 250.628906 103.460938 254.441406 L 103.460938 261.460938 L 113.335938 276.273438 L 123.210938 261.460938 L 123.210938 254.441406 C 131.921875 250.628906 138.023438 241.953125 138.023438 231.835938 Z M 138.023438 231.835938 " fill-opacity="1" fill-rule="nonzero"/><path fill="#ffcd94" d="M 138.023438 231.835938 C 138.023438 232.644531 137.984375 233.453125 137.90625 234.257812 C 137.828125 235.0625 137.707031 235.859375 137.550781 236.652344 C 137.394531 237.445312 137.195312 238.230469 136.960938 239.003906 C 136.726562 239.777344 136.457031 240.539062 136.144531 241.285156 C 135.835938 242.03125 135.492188 242.761719 135.109375 243.476562 C 134.730469 244.1875 134.3125 244.882812 133.863281 245.554688 C 133.414062 246.226562 132.933594 246.875 132.421875 247.5 C 131.910156 248.125 131.367188 248.722656 130.792969 249.292969 C 130.222656 249.867188 129.625 250.410156 129 250.921875 C 128.375 251.433594 127.726562 251.914062 127.054688 252.363281 C 126.382812 252.8125 125.6875 253.230469 124.976562 253.609375 C 124.261719 253.992188 123.53125 254.335938 122.785156 254.644531 C 122.039062 254.957031 121.277344 255.226562 120.503906 255.460938 C 119.730469 255.695312 118.945312 255.894531 118.152344 256.050781 C 117.359375 256.207031 116.5625 256.328125 115.757812 256.40625 C 114.953125 256.484375 114.144531 256.523438 113.335938 256.523438 C 112.527344 256.523438 111.722656 256.484375 110.917969 256.40625 C 110.113281 256.328125 109.3125 256.207031 108.519531 256.050781 C 107.726562 255.894531 106.945312 255.695312 106.171875 255.460938 C 105.398438 255.226562 104.636719 254.957031 103.890625 254.644531 C 103.144531 254.335938 102.414062 253.992188 101.699219 253.609375 C 100.988281 253.230469 100.292969 252.8125 99.621094 252.363281 C 98.949219 251.914062 98.300781 251.433594 97.675781 250.921875 C 97.050781 250.410156 96.453125 249.867188 95.882812 249.292969 C 95.308594 248.722656 94.765625 248.125 94.253906 247.5 C 93.742188 246.875 93.261719 246.226562 92.8125 245.554688 C 92.363281 244.882812 91.945312 244.1875 91.566406 243.476562 C 91.183594 242.761719 90.839844 242.03125 90.53125 241.285156 C 90.21875 240.539062 89.949219 239.777344 89.714844 239.003906 C 89.476562 238.230469 89.28125 237.445312 89.125 236.652344 C 88.964844 235.859375 88.847656 235.0625 88.769531 234.257812 C 88.691406 233.453125 88.648438 232.644531 88.648438 231.835938 C 88.648438 231.027344 88.691406 230.222656 88.769531 229.417969 C 88.847656 228.613281 88.964844 227.8125 89.125 227.019531 C 89.28125 226.226562 89.476562 225.445312 89.714844 224.671875 C 89.949219 223.898438 90.21875 223.136719 90.53125 222.390625 C 90.839844 221.644531 91.183594 220.914062 91.566406 220.199219 C 91.945312 219.488281 92.363281 218.792969 92.8125 218.121094 C 93.261719 217.449219 93.742188 216.800781 94.253906 216.175781 C 94.765625 215.550781 95.308594 214.953125 95.882812 214.382812 C 96.453125 213.808594 97.050781 213.265625 97.675781 212.753906 C 98.300781 212.242188 98.949219 211.761719 99.621094 211.3125 C 100.292969 210.863281 100.988281 210.445312 101.699219 210.066406 C 102.414062 209.683594 103.144531 209.339844 103.890625 209.03125 C 104.636719 208.71875 105.398438 208.449219 106.171875 208.214844 C 106.945312 207.976562 107.726562 207.78125 108.519531 207.625 C 109.3125 207.464844 110.113281 207.347656 110.917969 207.269531 C 111.722656 207.191406 112.527344 207.148438 113.335938 207.148438 C 114.144531 207.148438 114.953125 207.191406 115.757812 207.269531 C 116.5625 207.347656 117.359375 207.464844 118.152344 207.625 C 118.945312 207.78125 119.730469 207.976562 120.503906 208.214844 C 121.277344 208.449219 122.039062 208.71875 122.785156 209.03125 C 123.53125 209.339844 124.261719 209.683594 124.976562 210.066406 C 125.6875 210.445312 126.382812 210.863281 127.054688 211.3125 C 127.726562 211.761719 128.375 212.242188 129 212.753906 C 129.625 213.265625 130.222656 213.808594 130.792969 214.382812 C 131.367188 214.953125 131.910156 215.550781 132.421875 216.175781 C 132.933594 216.800781 133.414062 217.449219 133.863281 218.121094 C 134.3125 218.792969 134.730469 219.488281 135.109375 220.199219 C 135.492188 220.914062 135.835938 221.644531 136.144531 222.390625 C 136.457031 223.136719 136.726562 223.898438 136.960938 224.671875 C 137.195312 225.445312 137.394531 226.226562 137.550781 227.019531 C 137.707031 227.8125 137.828125 228.613281 137.90625 229.417969 C 137.984375 230.222656 138.023438 231.027344 138.023438 231.835938 Z M 138.023438 231.835938 " fill-opacity="1" fill-rule="nonzero"/><path fill="#26547c" d="M 94.820312 230.800781 C 102.082031 230.800781 108.695312 227.789062 113.335938 223 C 117.980469 227.789062 124.59375 230.800781 131.851562 230.800781 C 133.898438 230.800781 135.941406 230.554688 137.847656 230.074219 C 136.929688 217.277344 126.367188 207.148438 113.335938 207.148438 C 100.308594 207.148438 89.746094 217.277344 88.828125 230.074219 C 90.734375 230.554688 92.777344 230.800781 94.820312 230.800781 Z M 94.820312 230.800781 " fill-opacity="1" fill-rule="nonzero"/><g clip-path="url(#caafd9b6d8)"><path fill="#91d6f2" d="M 96.234375 333.460938 C 101.734375 334.765625 107.441406 335.523438 113.335938 335.523438 C 154.238281 335.523438 187.398438 302.363281 187.398438 261.460938 C 187.398438 261.175781 187.359375 260.898438 187.355469 260.617188 C 171.332031 298.042969 137.34375 325.921875 96.234375 333.460938 Z M 96.234375 333.460938 " fill-opacity="1" fill-rule="nonzero"/></g><g clip-path="url(#cd9e8538ef)"><path fill="#ef476f" d="M 335.523438 113.335938 C 335.523438 114.550781 335.496094 115.761719 335.4375 116.972656 C 335.375 118.183594 335.289062 119.390625 335.167969 120.597656 C 335.050781 121.804688 334.902344 123.007812 334.722656 124.203125 C 334.546875 125.402344 334.339844 126.597656 334.101562 127.785156 C 333.867188 128.976562 333.601562 130.15625 333.304688 131.332031 C 333.011719 132.507812 332.6875 133.675781 332.335938 134.835938 C 331.984375 135.996094 331.605469 137.148438 331.195312 138.289062 C 330.789062 139.429688 330.351562 140.558594 329.886719 141.679688 C 329.421875 142.800781 328.933594 143.90625 328.414062 145.003906 C 327.894531 146.097656 327.351562 147.179688 326.78125 148.25 C 326.207031 149.320312 325.609375 150.375 324.988281 151.414062 C 324.363281 152.453125 323.714844 153.476562 323.042969 154.484375 C 322.371094 155.492188 321.671875 156.484375 320.949219 157.457031 C 320.226562 158.429688 319.484375 159.386719 318.714844 160.324219 C 317.945312 161.257812 317.152344 162.175781 316.339844 163.074219 C 315.523438 163.972656 314.691406 164.851562 313.832031 165.707031 C 312.976562 166.566406 312.097656 167.398438 311.199219 168.214844 C 310.300781 169.027344 309.382812 169.820312 308.449219 170.589844 C 307.511719 171.359375 306.554688 172.101562 305.582031 172.824219 C 304.609375 173.546875 303.617188 174.246094 302.609375 174.917969 C 301.601562 175.589844 300.578125 176.238281 299.539062 176.863281 C 298.5 177.484375 297.445312 178.082031 296.375 178.65625 C 295.304688 179.226562 294.222656 179.769531 293.128906 180.289062 C 292.03125 180.808594 290.925781 181.296875 289.804688 181.761719 C 288.683594 182.226562 287.554688 182.664062 286.414062 183.070312 C 285.273438 183.480469 284.121094 183.859375 282.960938 184.210938 C 281.800781 184.5625 280.632812 184.886719 279.457031 185.179688 C 278.28125 185.476562 277.101562 185.742188 275.910156 185.976562 C 274.722656 186.214844 273.527344 186.421875 272.328125 186.597656 C 271.128906 186.777344 269.929688 186.925781 268.722656 187.042969 C 267.515625 187.164062 266.308594 187.25 265.097656 187.3125 C 263.886719 187.371094 262.675781 187.398438 261.460938 187.398438 C 260.25 187.398438 259.039062 187.371094 257.828125 187.3125 C 256.617188 187.25 255.410156 187.164062 254.203125 187.042969 C 252.996094 186.925781 251.792969 186.777344 250.59375 186.597656 C 249.394531 186.421875 248.203125 186.214844 247.015625 185.976562 C 245.824219 185.742188 244.644531 185.476562 243.46875 185.179688 C 242.292969 184.886719 241.125 184.5625 239.964844 184.210938 C 238.804688 183.859375 237.652344 183.480469 236.511719 183.070312 C 235.371094 182.664062 234.238281 182.226562 233.121094 181.761719 C 232 181.296875 230.890625 180.808594 229.796875 180.289062 C 228.699219 179.769531 227.617188 179.226562 226.550781 178.65625 C 225.480469 178.082031 224.425781 177.484375 223.386719 176.863281 C 222.347656 176.238281 221.324219 175.589844 220.316406 174.917969 C 219.308594 174.246094 218.316406 173.546875 217.34375 172.824219 C 216.371094 172.101562 215.414062 171.359375 214.476562 170.589844 C 213.539062 169.820312 212.625 169.027344 211.726562 168.214844 C 210.828125 167.398438 209.949219 166.566406 209.09375 165.707031 C 208.234375 164.851562 207.398438 163.972656 206.585938 163.074219 C 205.773438 162.175781 204.980469 161.257812 204.210938 160.324219 C 203.441406 159.386719 202.695312 158.429688 201.976562 157.457031 C 201.253906 156.484375 200.554688 155.492188 199.882812 154.484375 C 199.207031 153.476562 198.558594 152.453125 197.9375 151.414062 C 197.3125 150.375 196.714844 149.320312 196.144531 148.25 C 195.574219 147.179688 195.027344 146.097656 194.511719 145.003906 C 193.992188 143.90625 193.5 142.800781 193.039062 141.679688 C 192.574219 140.558594 192.136719 139.429688 191.730469 138.289062 C 191.320312 137.148438 190.941406 135.996094 190.589844 134.835938 C 190.238281 133.675781 189.914062 132.507812 189.621094 131.332031 C 189.324219 130.15625 189.058594 128.976562 188.824219 127.785156 C 188.585938 126.597656 188.378906 125.402344 188.203125 124.203125 C 188.023438 123.007812 187.875 121.804688 187.757812 120.597656 C 187.636719 119.390625 187.546875 118.183594 187.488281 116.972656 C 187.429688 115.761719 187.398438 114.550781 187.398438 113.335938 C 187.398438 112.125 187.429688 110.914062 187.488281 109.703125 C 187.546875 108.492188 187.636719 107.285156 187.757812 106.078125 C 187.875 104.871094 188.023438 103.667969 188.203125 102.46875 C 188.378906 101.269531 188.585938 100.078125 188.824219 98.890625 C 189.058594 97.699219 189.324219 96.519531 189.621094 95.34375 C 189.914062 94.167969 190.238281 93 190.589844 91.839844 C 190.941406 90.679688 191.320312 89.527344 191.730469 88.386719 C 192.136719 87.246094 192.574219 86.113281 193.039062 84.996094 C 193.5 83.875 193.992188 82.765625 194.511719 81.671875 C 195.027344 80.574219 195.574219 79.492188 196.144531 78.425781 C 196.714844 77.355469 197.3125 76.300781 197.9375 75.261719 C 198.558594 74.222656 199.207031 73.199219 199.882812 72.191406 C 200.554688 71.183594 201.253906 70.191406 201.976562 69.21875 C 202.695312 68.246094 203.441406 67.289062 204.210938 66.351562 C 204.980469 65.414062 205.773438 64.5 206.585938 63.601562 C 207.398438 62.703125 208.234375 61.824219 209.09375 60.96875 C 209.949219 60.109375 210.828125 59.273438 211.726562 58.460938 C 212.625 57.648438 213.539062 56.855469 214.476562 56.085938 C 215.414062 55.316406 216.371094 54.570312 217.34375 53.851562 C 218.316406 53.128906 219.308594 52.429688 220.316406 51.757812 C 221.324219 51.082031 222.347656 50.433594 223.386719 49.8125 C 224.425781 49.1875 225.480469 48.589844 226.550781 48.019531 C 227.617188 47.449219 228.699219 46.902344 229.796875 46.386719 C 230.890625 45.867188 232 45.375 233.121094 44.914062 C 234.238281 44.449219 235.371094 44.011719 236.511719 43.605469 C 237.652344 43.195312 238.804688 42.816406 239.964844 42.464844 C 241.125 42.113281 242.292969 41.789062 243.46875 41.496094 C 244.644531 41.199219 245.824219 40.933594 247.015625 40.699219 C 248.203125 40.460938 249.394531 40.253906 250.59375 40.078125 C 251.792969 39.898438 252.996094 39.75 254.203125 39.632812 C 255.410156 39.511719 256.617188 39.425781 257.828125 39.363281 C 259.039062 39.304688 260.25 39.273438 261.460938 39.273438 C 262.675781 39.273438 263.886719 39.304688 265.097656 39.363281 C 266.308594 39.425781 267.515625 39.511719 268.722656 39.632812 C 269.929688 39.75 271.128906 39.898438 272.328125 40.078125 C 273.527344 40.253906 274.722656 40.460938 275.910156 40.699219 C 277.101562 40.933594 278.28125 41.199219 279.457031 41.496094 C 280.632812 41.789062 281.800781 42.113281 282.960938 42.464844 C 284.121094 42.816406 285.273438 43.195312 286.414062 43.605469 C 287.554688 44.011719 288.683594 44.449219 289.804688 44.914062 C 290.925781 45.375 292.03125 45.867188 293.128906 46.386719 C 294.222656 46.902344 295.304688 47.449219 296.375 48.019531 C 297.445312 48.589844 298.5 49.1875 299.539062 49.8125 C 300.578125 50.433594 301.601562 51.082031 302.609375 51.757812 C 303.617188 52.429688 304.609375 53.128906 305.582031 53.851562 C 306.554688 54.570312 307.511719 55.316406 308.449219 56.085938 C 309.382812 56.855469 310.300781 57.648438 311.199219 58.460938 C 312.097656 59.273438 312.976562 60.109375 313.832031 60.96875 C 314.691406 61.824219 315.523438 62.703125 316.339844 63.601562 C 317.152344 64.5 317.945312 65.414062 318.714844 66.351562 C 319.484375 67.289062 320.226562 68.246094 320.949219 69.21875 C 321.671875 70.191406 322.371094 71.183594 323.042969 72.191406 C 323.714844 73.199219 324.363281 74.222656 324.988281 75.261719 C 325.609375 76.300781 326.207031 77.355469 326.78125 78.425781 C 327.351562 79.492188 327.894531 80.574219 328.414062 81.671875 C 328.933594 82.765625 329.421875 83.875 329.886719 84.996094 C 330.351562 86.113281 330.789062 87.246094 331.195312 88.386719 C 331.605469 89.527344 331.984375 90.679688 332.335938 91.839844 C 332.6875 93 333.011719 94.167969 333.304688 95.34375 C 333.601562 96.519531 333.867188 97.699219 334.101562 98.890625 C 334.339844 100.078125 334.546875 101.269531 334.722656 102.46875 C 334.902344 103.667969 335.050781 104.871094 335.167969 106.078125 C 335.289062 107.285156 335.375 108.492188 335.4375 109.703125 C 335.496094 110.914062 335.523438 112.125 335.523438 113.335938 Z M 335.523438 113.335938 " fill-opacity="1" fill-rule="nonzero"/></g><path fill="#cccccc" d="M 281.210938 113.335938 L 271.335938 113.335938 L 261.460938 128.148438 L 251.585938 113.335938 L 241.710938 113.335938 C 230.804688 113.335938 221.960938 122.179688 221.960938 133.085938 L 221.960938 152.835938 L 300.960938 152.835938 L 300.960938 133.085938 C 300.960938 122.179688 292.121094 113.335938 281.210938 113.335938 Z M 281.210938 113.335938 " fill-opacity="1" fill-rule="nonzero"/><path fill="#f2c38d" d="M 286.148438 83.710938 C 286.148438 70.082031 275.09375 59.023438 261.460938 59.023438 C 247.832031 59.023438 236.773438 70.082031 236.773438 83.710938 C 236.773438 93.828125 242.878906 102.503906 251.585938 106.316406 L 251.585938 113.335938 L 261.460938 128.148438 L 271.335938 113.335938 L 271.335938 106.316406 C 280.046875 102.503906 286.148438 93.828125 286.148438 83.710938 Z M 286.148438 83.710938 " fill-opacity="1" fill-rule="nonzero"/><path fill="#ffcd94" d="M 286.148438 83.710938 C 286.148438 84.519531 286.109375 85.328125 286.03125 86.132812 C 285.953125 86.9375 285.832031 87.734375 285.675781 88.527344 C 285.519531 89.320312 285.320312 90.105469 285.085938 90.878906 C 284.851562 91.652344 284.582031 92.414062 284.269531 93.160156 C 283.960938 93.90625 283.617188 94.636719 283.234375 95.351562 C 282.855469 96.0625 282.4375 96.757812 281.988281 97.429688 C 281.539062 98.101562 281.058594 98.75 280.546875 99.375 C 280.035156 100 279.492188 100.597656 278.917969 101.167969 C 278.347656 101.742188 277.75 102.285156 277.125 102.796875 C 276.5 103.308594 275.851562 103.789062 275.179688 104.238281 C 274.507812 104.6875 273.8125 105.105469 273.101562 105.484375 C 272.386719 105.867188 271.65625 106.210938 270.910156 106.519531 C 270.164062 106.832031 269.402344 107.101562 268.628906 107.335938 C 267.855469 107.570312 267.070312 107.769531 266.277344 107.925781 C 265.484375 108.082031 264.6875 108.203125 263.882812 108.28125 C 263.078125 108.359375 262.269531 108.398438 261.460938 108.398438 C 260.652344 108.398438 259.847656 108.359375 259.042969 108.28125 C 258.238281 108.203125 257.4375 108.082031 256.644531 107.925781 C 255.851562 107.769531 255.070312 107.570312 254.296875 107.335938 C 253.523438 107.101562 252.761719 106.832031 252.015625 106.519531 C 251.269531 106.210938 250.539062 105.867188 249.824219 105.484375 C 249.113281 105.105469 248.417969 104.6875 247.746094 104.238281 C 247.074219 103.789062 246.425781 103.308594 245.800781 102.796875 C 245.175781 102.285156 244.578125 101.742188 244.007812 101.167969 C 243.433594 100.597656 242.890625 100 242.378906 99.375 C 241.867188 98.75 241.386719 98.101562 240.9375 97.429688 C 240.488281 96.757812 240.070312 96.0625 239.691406 95.351562 C 239.308594 94.636719 238.964844 93.90625 238.65625 93.160156 C 238.34375 92.414062 238.074219 91.652344 237.839844 90.878906 C 237.601562 90.105469 237.40625 89.320312 237.25 88.527344 C 237.089844 87.734375 236.972656 86.9375 236.894531 86.132812 C 236.816406 85.328125 236.773438 84.519531 236.773438 83.710938 C 236.773438 82.902344 236.816406 82.097656 236.894531 81.292969 C 236.972656 80.488281 237.089844 79.6875 237.25 78.894531 C 237.40625 78.101562 237.601562 77.320312 237.839844 76.546875 C 238.074219 75.773438 238.34375 75.011719 238.65625 74.265625 C 238.964844 73.519531 239.308594 72.789062 239.691406 72.074219 C 240.070312 71.363281 240.488281 70.667969 240.9375 69.996094 C 241.386719 69.324219 241.867188 68.675781 242.378906 68.050781 C 242.890625 67.425781 243.433594 66.828125 244.007812 66.257812 C 244.578125 65.683594 245.175781 65.140625 245.800781 64.628906 C 246.425781 64.117188 247.074219 63.636719 247.746094 63.1875 C 248.417969 62.738281 249.113281 62.320312 249.824219 61.941406 C 250.539062 61.558594 251.269531 61.214844 252.015625 60.90625 C 252.761719 60.59375 253.523438 60.324219 254.296875 60.089844 C 255.070312 59.851562 255.851562 59.65625 256.644531 59.5 C 257.4375 59.339844 258.238281 59.222656 259.042969 59.144531 C 259.847656 59.066406 260.652344 59.023438 261.460938 59.023438 C 262.269531 59.023438 263.078125 59.066406 263.882812 59.144531 C 264.6875 59.222656 265.484375 59.339844 266.277344 59.5 C 267.070312 59.65625 267.855469 59.851562 268.628906 60.089844 C 269.402344 60.324219 270.164062 60.59375 270.910156 60.90625 C 271.65625 61.214844 272.386719 61.558594 273.101562 61.941406 C 273.8125 62.320312 274.507812 62.738281 275.179688 63.1875 C 275.851562 63.636719 276.5 64.117188 277.125 64.628906 C 277.75 65.140625 278.347656 65.683594 278.917969 66.257812 C 279.492188 66.828125 280.035156 67.425781 280.546875 68.050781 C 281.058594 68.675781 281.539062 69.324219 281.988281 69.996094 C 282.4375 70.667969 282.855469 71.363281 283.234375 72.074219 C 283.617188 72.789062 283.960938 73.519531 284.269531 74.265625 C 284.582031 75.011719 284.851562 75.773438 285.085938 76.546875 C 285.320312 77.320312 285.519531 78.101562 285.675781 78.894531 C 285.832031 79.6875 285.953125 80.488281 286.03125 81.292969 C 286.109375 82.097656 286.148438 82.902344 286.148438 83.710938 Z M 286.148438 83.710938 " fill-opacity="1" fill-rule="nonzero"/><path fill="#26547c" d="M 242.945312 82.675781 C 250.207031 82.675781 256.820312 79.664062 261.460938 74.875 C 266.105469 79.664062 272.71875 82.675781 279.976562 82.675781 C 282.023438 82.675781 284.066406 82.429688 285.972656 81.949219 C 285.054688 69.152344 274.492188 59.023438 261.460938 59.023438 C 248.433594 59.023438 237.871094 69.152344 236.953125 81.949219 C 238.859375 82.429688 240.902344 82.675781 242.945312 82.675781 Z M 242.945312 82.675781 " fill-opacity="1" fill-rule="nonzero"/><g clip-path="url(#9f60389db0)"><path fill="#cf3e60" d="M 244.359375 185.335938 C 249.859375 186.640625 255.566406 187.398438 261.460938 187.398438 C 302.363281 187.398438 335.523438 154.238281 335.523438 113.335938 C 335.523438 113.050781 335.484375 112.773438 335.480469 112.492188 C 319.457031 149.917969 285.46875 177.796875 244.359375 185.335938 Z M 244.359375 185.335938 " fill-opacity="1" fill-rule="nonzero"/></g></svg>